<svg width="79" height="8" viewBox="0 0 79 8" fill="none" xmlns="http://www.w3.org/2000/svg">
<rect width="24" height="8" rx="4" fill="#EC615B"/>
<path fill-rule="evenodd" clip-rule="evenodd" d="M33 8C35.2091 8 37 6.20914 37 4C37 1.79086 35.2091 0 33 0C30.7909 0 29 1.79086 29 4C29 6.20914 30.7909 8 33 8Z" fill="#EDF3FF"/>
<path fill-rule="evenodd" clip-rule="evenodd" d="M47 8C49.2091 8 51 6.20914 51 4C51 1.79086 49.2091 0 47 0C44.7909 0 43 1.79086 43 4C43 6.20914 44.7909 8 47 8Z" fill="#EDF3FF"/>
<path fill-rule="evenodd" clip-rule="evenodd" d="M61 8C63.2091 8 65 6.20914 65 4C65 1.79086 63.2091 0 61 0C58.7909 0 57 1.79086 57 4C57 6.20914 58.7909 8 61 8Z" fill="#EDF3FF"/>
<path fill-rule="evenodd" clip-rule="evenodd" d="M75 8C77.2091 8 79 6.20914 79 4C79 1.79086 77.2091 0 75 0C72.7909 0 71 1.79086 71 4C71 6.20914 72.7909 8 75 8Z" fill="#EDF3FF"/>
</svg>
